<svg width="20" height="19" viewBox="0 0 20 19" fill="none" xmlns="http://www.w3.org/2000/svg">
<path fill-rule="evenodd" clip-rule="evenodd" d="M2.62738 1.75H0.385986V0.25H2.62738C3.95873 0.25 5.09887 1.20369 5.33411 2.51409L5.54187 3.67146H18.1391C19.3036 3.67146 20.1433 4.78753 19.8206 5.9064L19.0926 8.43038C18.6296 10.0358 17.1603 11.1412 15.4895 11.1412H6.88283L6.93183 11.4142C7.03876 12.0099 7.55701 12.4434 8.16217 12.4434H17.7466V13.9434H8.16217C6.83082 13.9434 5.69068 12.9897 5.45544 11.6793L3.85771 2.77913C3.75078 2.1835 3.23254 1.75 2.62738 1.75ZM6.61355 9.64122H15.4895C16.492 9.64122 17.3736 8.97797 17.6514 8.01472L18.3793 5.49074C18.4254 5.3309 18.3055 5.17146 18.1391 5.17146H5.81115L6.61355 9.64122Z" fill="white"/>
<path fill-rule="evenodd" clip-rule="evenodd" d="M9.05415 16.6994C9.05415 16.6993 9.05415 16.6992 9.05415 16.6992C9.05415 16.6991 9.05415 16.699 9.05415 16.6989C9.05417 16.6937 9.05429 16.6658 9.00686 16.6222C8.95643 16.5758 8.86546 16.5291 8.73862 16.5291C8.61178 16.5291 8.52081 16.5758 8.47038 16.6222C8.42296 16.6658 8.42307 16.6937 8.42309 16.6989C8.4231 16.699 8.4231 16.6991 8.4231 16.6992C8.4231 16.6992 8.4231 16.6993 8.42309 16.6994C8.42307 16.7046 8.42296 16.7325 8.47038 16.7762C8.52081 16.8226 8.61178 16.8693 8.73862 16.8693C8.86546 16.8693 8.95643 16.8226 9.00686 16.7762C9.05429 16.7325 9.05417 16.7046 9.05415 16.6994ZM8.73862 18.3693C9.74131 18.3693 10.5541 17.6215 10.5541 16.6992C10.5541 15.7768 9.74131 15.0291 8.73862 15.0291C7.73593 15.0291 6.9231 15.7768 6.9231 16.6992C6.9231 17.6215 7.73593 18.3693 8.73862 18.3693Z" fill="white"/>
<path fill-rule="evenodd" clip-rule="evenodd" d="M17.0427 16.6994C17.0427 16.6993 17.0427 16.6992 17.0427 16.6992C17.0427 16.6991 17.0427 16.699 17.0427 16.6989C17.0427 16.6937 17.0428 16.6658 16.9954 16.6222C16.945 16.5758 16.854 16.5291 16.7271 16.5291C16.6003 16.5291 16.5093 16.5758 16.4589 16.6222C16.4115 16.6658 16.4116 16.6937 16.4116 16.6989C16.4116 16.699 16.4116 16.6991 16.4116 16.6992C16.4116 16.6992 16.4116 16.6993 16.4116 16.6994C16.4116 16.7046 16.4115 16.7325 16.4589 16.7762C16.5093 16.8226 16.6003 16.8693 16.7271 16.8693C16.854 16.8693 16.945 16.8226 16.9954 16.7762C17.0428 16.7325 17.0427 16.7046 17.0427 16.6994ZM16.7271 18.3693C17.7298 18.3693 18.5427 17.6215 18.5427 16.6992C18.5427 15.7768 17.7298 15.0291 16.7271 15.0291C15.7245 15.0291 14.9116 15.7768 14.9116 16.6992C14.9116 17.6215 15.7245 18.3693 16.7271 18.3693Z" fill="white"/>
</svg>
