<svg width="32" height="25" viewBox="0 0 32 25" fill="none" xmlns="http://www.w3.org/2000/svg">
<path fill-rule="evenodd" clip-rule="evenodd" d="M4.65214 2.24957H0V0.749573H4.65214C6.00406 0.749573 7.15546 1.73221 7.36796 3.06732L7.99688 7.01882H29.7121C30.8545 7.01882 31.6906 8.09558 31.4076 9.20234L29.5067 16.6364C29.0823 18.2963 27.5869 19.4574 25.8736 19.4574H9.9766L10.3874 22.0383C10.484 22.6452 11.0073 23.0918 11.6218 23.0918H28.203V24.5918H11.6218C10.2699 24.5918 9.11852 23.6092 8.90602 22.2741L5.8866 3.3031C5.79002 2.69623 5.26665 2.24957 4.65214 2.24957ZM9.73786 17.9574H25.8736C26.9016 17.9574 27.7988 17.2607 28.0535 16.2648L29.9543 8.83075C29.9948 8.67264 29.8753 8.51882 29.7121 8.51882H8.23562L9.73786 17.9574Z" fill="black"/>
</svg>
